<?xml version="1.0" encoding="utf-8"?>
<!-- Generator: Adobe Illustrator 27.5.0, SVG Export Plug-In . SVG Version: 6.00 Build 0)  -->
<svg version="1.1" id="Layer_1" xmlns="http://www.w3.org/2000/svg" xmlns:xlink="http://www.w3.org/1999/xlink" x="0px" y="0px"
	 viewBox="0 0 1422 800" style="enable-background:new 0 0 1422 800;" xml:space="preserve">
<g>
	<defs>
		<rect id="SVGID_1_" width="1422" height="800"/>
	</defs>
	<clipPath id="SVGID_00000139984846805508592690000008230061406810229897_">
		<use xlink:href="#SVGID_1_"  style="overflow:visible;"/>
	</clipPath>
	
		<rect style="clip-path:url(#SVGID_00000139984846805508592690000008230061406810229897_);fill:#FF9700;" width="1422" height="800"/>
	<g style="clip-path:url(#SVGID_00000139984846805508592690000008230061406810229897_);">
		
			<rect x="311" y="-29.698" transform="matrix(0.7071 -0.7071 0.7071 0.7071 90.6756 220.9102)" style="fill:#FFB600;" width="2" height="61.397"/>
		
			<rect x="647" y="-29.698" transform="matrix(0.7071 -0.7071 0.7071 0.7071 189.0877 458.4981)" style="fill:#FFB600;" width="2" height="61.397"/>
		
			<rect x="899" y="-29.698" transform="matrix(0.7071 -0.7071 0.7071 0.7071 262.8968 636.689)" style="fill:#FFB600;" width="2" height="61.397"/>
		
			<rect x="1319" y="-29.698" transform="matrix(0.7071 -0.7071 0.7071 0.7071 385.912 933.6738)" style="fill:#FFB600;" width="2" height="61.397"/>
		
			<rect x="1403" y="-29.698" transform="matrix(0.7071 -0.7071 0.7071 0.7071 410.515 993.0708)" style="fill:#FFB600;" width="2" height="61.397"/>
		<polygon style="fill:#FFB600;" points="39,65.414 40.414,64 -1.586,22 39,-18.586 79.586,22 81,23.414 121.586,64 79.586,106 
			81,107.414 123,65.414 163.586,106 121.586,148 123,149.414 165,107.414 166.414,106 165,104.586 124.414,64 166.414,22 
			165,20.586 123,62.586 82.414,22 124.414,-20 123,-21.414 81,20.586 40.414,-20 39,-21.414 37.586,-20 -3,20.586 -4.414,22 
			-3,23.414 		"/>
		<polygon style="fill:#FFB600;" points="205.586,64 207,65.414 249,23.414 291,65.414 292.414,64 250.414,22 249,20.586 
			207,-21.414 205.586,-20 247.586,22 		"/>
		<polygon style="fill:#FFB600;" points="459,23.414 499.586,64 459,104.586 417,62.586 415.586,64 457.586,106 459,107.414 
			460.414,106 501,65.414 502.414,64 501,62.586 460.414,22 459,20.586 417,-21.414 415.586,-20 457.586,22 		"/>
		<path style="fill:#FFB600;" d="M627,23.414L667.586,64L669,65.414L709.586,106l1.414,1.414L751.586,148l1.414,1.414L793.586,190
			l1.414,1.414L835.586,232l1.414,1.414L877.586,274l1.414,1.414L919.586,316l1.414,1.414l42,42l1.414-1.414l-42-42L921,314.586
			L880.414,274L921,233.414l1.414-1.414l42-42L963,188.586l-42,42L919.586,232L879,272.586L838.414,232l42-42L879,188.586l-42,42
			L796.414,190l42-42L837,146.586l-42,42L754.414,148L795,107.414l1.414-1.414L837,65.414L838.414,64L837,62.586L796.414,22
			L795,20.586l-42-42L751.586-20l42,42L795,23.414L835.586,64L795,104.586L754.414,64L753,62.586L751.586,64L711,104.586L670.414,64
			L711,23.414L712.414,22L711,20.586l-42-42L667.586-20l42,42L669,62.586L628.414,22L627,20.586l-42-42L583.586-20l42,42L627,23.414
			z M753,65.414L793.586,106L753,146.586L712.414,106L753,65.414z"/>
		<polygon style="fill:#FFB600;" points="709.586,64 711,65.414 753,23.414 795,65.414 796.414,64 754.414,22 753,20.586 
			711,-21.414 709.586,-20 751.586,22 		"/>
		<path style="fill:#FFB600;" d="M879,23.414L919.586,64l-42,42l1.414,1.414l42-42L961.586,106l1.414,1.414l1.414-1.414L1005,65.414
			l1.414-1.414L1005,62.586L964.414,22L963,20.586l-42-42L919.586-20l42,42L921,62.586L880.414,22L879,20.586l-42-42L835.586-20
			l42,42L879,23.414z M963,23.414L1003.586,64L963,104.586L922.414,64L963,23.414z"/>
		<polygon style="fill:#FFB600;" points="1087.586,22 1089,23.414 1131,65.414 1132.414,64 1090.414,22 1132.414,-20 1131,-21.414 
			1089,20.586 		"/>
		<polygon style="fill:#FFB600;" points="1215,62.586 1173,20.586 1171.586,22 1213.586,64 1215,65.414 1216.414,64 1257,23.414 
			1258.414,22 1257,20.586 1215,-21.414 1213.586,-20 1255.586,22 		"/>
		<path style="fill:#FFB600;" d="M1384.414,22L1383,20.586l-42-42L1339.586-20l42,42L1341,62.586L1300.414,22L1299,20.586l-42-42
			L1255.586-20l42,42L1257,62.586L1255.586,64L1215,104.586L1174.414,64L1173,62.586L1132.414,22L1173-18.586l42,42l1.414-1.414
			l-42-42L1173-21.414L1171.586-20L1131,20.586L1129.586,22l1.414,1.414L1171.586,64L1131,104.586L1090.414,64L1089,62.586
			L1048.414,22l42-42L1089-21.414l-42,42L1045.586,22l1.414,1.414L1087.586,64l-42,42l1.414,1.414l42-42L1129.586,106l1.414,1.414
			l1.414-1.414L1173,65.414L1213.586,106l1.414,1.414l1.414-1.414L1257,65.414L1297.586,106L1257,146.586l-1.414,1.414l-42,42
			l1.414,1.414l42-42l1.414-1.414L1299,107.414l42,42l1.414-1.414l-42-42L1341,65.414L1381.586,106l1.414,1.414l1.414-1.414
			L1425,65.414l1.414-1.414L1425,62.586L1384.414,22z M1299,104.586L1258.414,64L1299,23.414L1339.586,64L1299,104.586z
			 M1383,104.586L1342.414,64L1383,23.414L1423.586,64L1383,104.586z"/>
		<polygon style="fill:#FFB600;" points="670.414,148 628.414,106 627,104.586 586.414,64 585,62.586 543,20.586 541.586,22 
			583.586,64 585,65.414 625.586,106 627,107.414 669,149.414 		"/>
		<path style="fill:#FFB600;" d="M1425,104.586l-42,42l-42-42l-1.414,1.414l42,42L1341,188.586L1300.414,148l-1.414-1.414
			l-1.414,1.414L1257,188.586l-1.414,1.414L1215,230.586L1174.414,190L1215,149.414l1.414-1.414l42-42l-1.414-1.414l-42,42
			L1174.414,106l-1.414-1.414l-1.414,1.414L1131,146.586L1090.414,106l-1.414-1.414l-1.414,1.414L1047,146.586L1006.414,106
			L1047,65.414l1.414-1.414L1047,62.586L1006.414,22l42-42L1047-21.414l-42,42l-42-42L961.586-20l42,42l1.414,1.414L1045.586,64
			L1005,104.586l-1.414,1.414L963,146.586L922.414,106L921,104.586L919.586,106L879,146.586L838.414,106L879,65.414L880.414,64
			L879,62.586L838.414,22L837,20.586l-42-42L793.586-20l42,42L837,23.414L877.586,64L837,104.586L835.586,106l-42,42l1.414,1.414
			l42-42L877.586,148l-42,42l1.414,1.414l42-42L919.586,190l-42,42l1.414,1.414l42-42l1.414-1.414L963,149.414L1003.586,190
			L963,230.586L961.586,232L921,272.586L919.586,274l1.414,1.414L961.586,316l1.414,1.414L1003.586,358L963,398.586L922.414,358
			L921,356.586L880.414,316L879,314.586L838.414,274L837,272.586L796.414,232L795,230.586L754.414,190L753,188.586L712.414,148
			L711,146.586L670.414,106L669,104.586L628.414,64L627,62.586L586.414,22L585,20.586L544.414-20L543-21.414L541.586-20L501,20.586
			l-42-42L457.586-20l42,42L501,23.414L541.586,64L501,104.586L499.586,106L459,146.586L418.414,106L417,104.586L376.414,64
			L417,23.414l42,42L460.414,64l-42-42L417,20.586l-42-42L373.586-20l42,42L375,62.586L373.586,64L375,65.414L415.586,106
			l1.414,1.414L457.586,148l1.414,1.414l1.414-1.414L501,107.414l42,42l1.414-1.414l-42-42L543,65.414L583.586,106l1.414,1.414
			L625.586,148L585,188.586L583.586,190l1.414,1.414L625.586,232l1.414,1.414l1.414-1.414L669,191.414L709.586,232L669,272.586
			L667.586,274l-42,42l1.414,1.414l42-42l1.414-1.414L711,233.414L751.586,274l1.414,1.414L793.586,316L753,356.586l-42-42
			L709.586,316l42,42l1.414,1.414l42,42l1.414-1.414l-42-42L795,317.414l42,42l1.414-1.414l-42-42L795,314.586L754.414,274
			L753,272.586L712.414,232L753,191.414L793.586,232l1.414,1.414L835.586,274l1.414,1.414L877.586,316l1.414,1.414L919.586,358
			l1.414,1.414L961.586,400l1.414,1.414l1.414-1.414L1005,359.414L1045.586,400L1005,440.586l-1.414,1.414l-42,42l1.414,1.414l42-42
			l1.414-1.414L1047,401.414L1087.586,442l1.414,1.414L1129.586,484L1089,524.586l-42-42l-1.414,1.414l42,42l1.414,1.414
			L1129.586,568L1089,608.586L1048.414,568l-1.414-1.414l-42-42l-1.414,1.414l42,42L1005,608.586L964.414,568L963,566.586
			L922.414,526L921,524.586L919.586,526l-42,42l1.414,1.414l42-42L961.586,568l1.414,1.414L1003.586,610L963,650.586L922.414,610
			L921,608.586L919.586,610L879,650.586L838.414,610L837,608.586L796.414,568L837,527.414l1.414-1.414l42-42L879,482.586l-42,42
			l-42-42L793.586,484l42,42L795,566.586L793.586,568L753,608.586L712.414,568L711,566.586L670.414,526L669,524.586L667.586,526
			L627,566.586L586.414,526L585,524.586L544.414,484L543,482.586L502.414,442L543,401.414l1.414-1.414L585,359.414l42,42
			l1.414-1.414l-42-42L585,356.586L583.586,358L543,398.586L541.586,400L501,440.586L460.414,400L501,359.414l1.414-1.414
			L543,317.414l1.414-1.414L543,314.586L502.414,274L501,272.586L460.414,232L501,191.414l42,42l1.414-1.414l-42-42L501,188.586
			L499.586,190L459,230.586L457.586,232l1.414,1.414L499.586,274l1.414,1.414L541.586,316L501,356.586L499.586,358L459,398.586
			L418.414,358L459,317.414l1.414-1.414L459,314.586L418.414,274L417,272.586L376.414,232L375,230.586L334.414,190L333,188.586
			L292.414,148L333,107.414L373.586,148l1.414,1.414l42,42l1.414-1.414l-42-42L375,146.586L334.414,106L333,104.586L331.586,106
			L291,146.586L289.586,148L249,188.586L208.414,148L207,146.586L205.586,148L165,188.586L163.586,190l1.414,1.414L205.586,232
			l1.414,1.414l1.414-1.414L249,191.414l1.414-1.414L291,149.414L331.586,190L291,230.586L289.586,232L249,272.586L247.586,274
			l1.414,1.414L289.586,316l1.414,1.414l42,42l1.414-1.414l-42-42L333,275.414L373.586,316l1.414,1.414L415.586,358L375,398.586
			L373.586,400L333,440.586L292.414,400L291,398.586l-42-42L247.586,358l42,42l1.414,1.414L331.586,442L291,482.586L289.586,484
			l1.414,1.414L331.586,526l1.414,1.414l1.414-1.414L375,485.414L415.586,526L375,566.586L373.586,568l-42,42l1.414,1.414l42-42
			l1.414-1.414L417,527.414L457.586,568l1.414,1.414L499.586,610l1.414,1.414l1.414-1.414L543,569.414L583.586,610L543,650.586
			L541.586,652l1.414,1.414L583.586,694l-42,42l1.414,1.414l42-42l1.414-1.414L585,692.586L544.414,652L585,611.414L625.586,652
			l1.414,1.414L667.586,694l1.414,1.414L709.586,736l1.414,1.414L751.586,778l-42,42l1.414,1.414l42-42l42,42l1.414-1.414l-42-42
			L795,737.414L835.586,778l1.414,1.414l1.414-1.414L879,737.414l1.414-1.414L921,695.414L961.586,736l1.414,1.414L1003.586,778
			L963,818.586l-42-42L919.586,778l42,42l1.414,1.414l1.414-1.414L1005,779.414l42,42l1.414-1.414l-42-42l42-42l-1.414-1.414l-42,42
			L964.414,736L963,734.586L922.414,694L963,653.414l1.414-1.414L1005,611.414l1.414-1.414L1047,569.414L1087.586,610l1.414,1.414
			L1129.586,652l1.414,1.414l42,42l1.414-1.414l-42-42l-1.414-1.414L1090.414,610L1131,569.414l42,42l1.414-1.414l-42-42
			l-1.414-1.414L1090.414,526L1131,485.414L1171.586,526l1.414,1.414l1.414-1.414L1215,485.414L1255.586,526l1.414,1.414
			L1297.586,568l1.414,1.414L1339.586,610l1.414,1.414l1.414-1.414L1383,569.414l42,42l1.414-1.414l-42-42l-1.414-1.414
			l-1.414,1.414L1341,608.586L1300.414,568l-1.414-1.414L1258.414,526l42-42l-1.414-1.414l-42,42L1216.414,484l42-42l-1.414-1.414
			l-42,42L1174.414,442l-1.414-1.414L1132.414,400l-1.414-1.414L1090.414,358L1131,317.414l1.414-1.414L1173,275.414L1213.586,316
			l1.414,1.414L1255.586,358l1.414,1.414l1.414-1.414l42-42l-1.414-1.414l-42,42L1216.414,316L1257,275.414l1.414-1.414
			l-1.414-1.414L1216.414,232L1257,191.414l1.414-1.414L1299,149.414L1339.586,190l1.414,1.414L1381.586,232l1.414,1.414l42,42
			l1.414-1.414l-42-42l-1.414-1.414L1342.414,190L1383,149.414l42,42l1.414-1.414l-42-42l42-42L1425,104.586z M586.414,106
			L585,104.586L544.414,64L543,62.586L502.414,22L543-18.586L583.586,22L585,23.414L625.586,64L627,65.414L667.586,106l1.414,1.414
			L709.586,148L669,188.586L628.414,148L627,146.586L586.414,106z M627,230.586L586.414,190L627,149.414L667.586,190L627,230.586z
			 M711,230.586L670.414,190L711,149.414L751.586,190L711,230.586z M207,230.586L166.414,190L207,149.414L247.586,190L207,230.586z
			 M795,569.414L835.586,610l1.414,1.414L877.586,652L837,692.586L796.414,652L795,650.586L754.414,610L795,569.414z M669,527.414
			L709.586,568L669,608.586L628.414,568L669,527.414z M376.414,316L375,314.586L334.414,274L333,272.586L331.586,274L291,314.586
			L250.414,274L291,233.414l1.414-1.414L333,191.414L373.586,232l1.414,1.414L415.586,274l1.414,1.414L457.586,316L417,356.586
			L376.414,316z M333,524.586L292.414,484L333,443.414L373.586,484L333,524.586z M753,776.586L712.414,736L711,734.586L670.414,694
			L669,692.586L628.414,652L627,650.586L586.414,610L585,608.586L544.414,568L543,566.586L541.586,568L501,608.586L460.414,568
			l42-42L501,524.586l-42,42L418.414,526L417,524.586L376.414,484L375,482.586L334.414,442L375,401.414L415.586,442l1.414,1.414
			l42,42l1.414-1.414l-42-42L417,440.586L376.414,400L417,359.414L457.586,400l1.414,1.414L499.586,442l1.414,1.414L541.586,484
			l1.414,1.414L583.586,526l1.414,1.414L625.586,568l1.414,1.414L667.586,610l1.414,1.414l1.414-1.414L711,569.414L751.586,610
			l-42,42l1.414,1.414l42-42L793.586,652L753,692.586L751.586,694l1.414,1.414L793.586,736L753,776.586z M837,776.586L796.414,736
			L795,734.586L754.414,694L795,653.414L835.586,694l1.414,1.414L877.586,736L837,776.586z M921,692.586L919.586,694L879,734.586
			L838.414,694L879,653.414l1.414-1.414L921,611.414L961.586,652L921,692.586z M1213.586,232L1173,272.586L1132.414,232
			L1173,191.414L1213.586,232z M1173,107.414L1213.586,148L1173,188.586L1132.414,148L1173,107.414z M1089,107.414L1129.586,148
			l1.414,1.414L1171.586,190L1131,230.586L1090.414,190l-1.414-1.414L1048.414,148L1089,107.414z M1087.586,190L1047,230.586
			L1006.414,190L1047,149.414L1087.586,190z M921,188.586L880.414,148L921,107.414L961.586,148L921,188.586z M964.414,148
			L1005,107.414L1045.586,148L1005,188.586L964.414,148z M1005,191.414L1045.586,232L1005,272.586L964.414,232L1005,191.414z
			 M922.414,274L963,233.414L1003.586,274L963,314.586L922.414,274z M964.414,316L1005,275.414L1045.586,316L1005,356.586
			L964.414,316z M1006.414,358L1047,317.414L1087.586,358L1047,398.586L1006.414,358z M1213.586,484L1173,524.586L1132.414,484
			L1173,443.414L1213.586,484z M1129.586,400l1.414,1.414L1171.586,442L1131,482.586L1090.414,442l-1.414-1.414L1048.414,400
			L1089,359.414L1129.586,400z M1131,314.586l-1.414,1.414L1089,356.586L1048.414,316l-1.414-1.414L1006.414,274L1047,233.414
			l1.414-1.414L1089,191.414L1129.586,232l1.414,1.414L1171.586,274L1131,314.586z M1255.586,274L1215,314.586L1174.414,274
			L1215,233.414L1255.586,274z"/>
		
			<rect x="1109" y="138.302" transform="matrix(0.7071 -0.7071 0.7071 0.7071 205.6104 834.3875)" style="fill:#FFB600;" width="2" height="61.397"/>
		
			<rect x="1403" y="180.302" transform="matrix(0.7071 -0.7071 0.7071 0.7071 262.0226 1054.5784)" style="fill:#FFB600;" width="2" height="61.397"/>
		<polygon style="fill:#FFB600;" points="-4.414,232 -3,233.414 37.586,274 39,275.414 79.586,316 37.586,358 39,359.414 
			81,317.414 82.414,316 81,314.586 40.414,274 82.414,232 81,230.586 39,272.586 -1.586,232 39,191.414 40.414,190 39,188.586 
			-3,146.586 -4.414,148 37.586,190 -3,230.586 		"/>
		<path style="fill:#FFB600;" d="M1090.414,232l-1.414-1.414l-1.414,1.414L1047,272.586l-1.414,1.414l1.414,1.414L1087.586,316
			l1.414,1.414l1.414-1.414L1131,275.414l1.414-1.414l-1.414-1.414L1090.414,232z M1089,314.586L1048.414,274L1089,233.414
			L1129.586,274L1089,314.586z"/>
		<polygon style="fill:#FFB600;" points="376.414,274 375,272.586 334.414,232 333,230.586 331.586,232 289.586,274 291,275.414 
			333,233.414 373.586,274 375,275.414 417,317.414 418.414,316 		"/>
		<polygon style="fill:#FFB600;" points="1341,272.586 1299,230.586 1297.586,232 1339.586,274 1341,275.414 1383,317.414 
			1384.414,316 1342.414,274 		"/>
		<path style="fill:#FFB600;" d="M1384.414,274l-1.414-1.414L1342.414,232l-1.414-1.414L1300.414,190l-1.414-1.414l-1.414,1.414
			L1257,230.586l-1.414,1.414l1.414,1.414L1297.586,274l-42,42l1.414,1.414l42-42L1339.586,316L1299,356.586l-1.414,1.414
			L1257,398.586L1216.414,358l-1.414-1.414L1174.414,316l-1.414-1.414l-1.414,1.414L1131,356.586l-1.414,1.414l1.414,1.414
			L1171.586,400l1.414,1.414L1213.586,442l1.414,1.414l1.414-1.414L1257,401.414L1297.586,442l-42,42l1.414,1.414l42-42
			L1339.586,484L1299,524.586l-1.414,1.414l1.414,1.414L1339.586,568l1.414,1.414l1.414-1.414L1383,527.414l42,42l1.414-1.414
			l-42-42L1425,485.414l1.414-1.414l-1.414-1.414L1384.414,442l42-42l-1.414-1.414l-42,42l-42-42l-1.414,1.414l42,42l1.414,1.414
			L1423.586,484L1383,524.586L1342.414,484l-1.414-1.414L1300.414,442l-1.414-1.414L1258.414,400L1299,359.414l1.414-1.414
			L1341,317.414L1381.586,358l1.414,1.414l1.414-1.414L1425,317.414l1.414-1.414l-1.414-1.414L1384.414,274z M1381.586,526
			L1341,566.586L1300.414,526L1341,485.414L1381.586,526z M1215,440.586L1174.414,400l-1.414-1.414L1132.414,358L1173,317.414
			L1213.586,358l1.414,1.414L1255.586,400L1215,440.586z M1383,356.586L1342.414,316l-1.414-1.414L1300.414,274l-1.414-1.414
			L1258.414,232L1299,191.414L1339.586,232l1.414,1.414L1381.586,274l1.414,1.414L1423.586,316L1383,356.586z"/>
		
			<rect x="1193" y="348.302" transform="matrix(0.7071 -0.7071 0.7071 0.7071 81.721 955.2921)" style="fill:#FFB600;" width="2" height="61.397"/>
		<polygon style="fill:#FFB600;" points="1383,398.586 1342.414,358 1341,356.586 1339.586,358 1299,398.586 1297.586,400 
			1299,401.414 1339.586,442 1341,443.414 1383,485.414 1384.414,484 1342.414,442 1341,440.586 1300.414,400 1341,359.414 
			1381.586,400 1383,401.414 1384.414,400 1426.414,358 1425,356.586 		"/>
		<polygon style="fill:#FFB600;" points="207,398.586 165,440.586 123,398.586 121.586,400 163.586,442 165,443.414 166.414,442 
			208.414,400 		"/>
		<polygon style="fill:#FFB600;" points="711,401.414 753,443.414 754.414,442 712.414,400 711,398.586 669,356.586 667.586,358 
			709.586,400 		"/>
		<polygon style="fill:#FFB600;" points="879,401.414 921,443.414 922.414,442 880.414,400 879,398.586 877.586,400 835.586,442 
			837,443.414 		"/>
		
			<rect x="1109" y="390.302" transform="matrix(0.7071 -0.7071 0.7071 0.7071 27.4195 908.1966)" style="fill:#FFB600;" width="2" height="61.397"/>
		
			<rect x="605" y="432.302" transform="matrix(0.7071 -0.7071 0.7071 0.7071 -149.8972 564.1163)" style="fill:#FFB600;" width="2" height="61.397"/>
		<polygon style="fill:#FFB600;" points="-3,527.414 39,485.414 81,527.414 82.414,526 40.414,484 39,482.586 -1.586,442 
			39,401.414 79.586,442 81,443.414 121.586,484 123,485.414 163.586,526 165,527.414 205.586,568 207,569.414 247.586,610 
			249,611.414 289.586,652 291,653.414 331.586,694 333,695.414 334.414,694 375,653.414 415.586,694 417,695.414 418.414,694 
			459,653.414 501,695.414 502.414,694 460.414,652 459,650.586 457.586,652 417,692.586 376.414,652 375,650.586 373.586,652 
			333,692.586 292.414,652 291,650.586 250.414,610 249,608.586 208.414,568 207,566.586 166.414,526 165,524.586 124.414,484 
			123,482.586 82.414,442 81,440.586 40.414,400 81,359.414 82.414,358 123,317.414 124.414,316 165,275.414 207,317.414 
			208.414,316 166.414,274 165,272.586 163.586,274 123,314.586 82.414,274 123,233.414 124.414,232 123,230.586 82.414,190 
			81,188.586 40.414,148 39,146.586 -3,104.586 -4.414,106 37.586,148 39,149.414 79.586,190 37.586,232 39,233.414 81,191.414 
			121.586,232 81,272.586 79.586,274 81,275.414 121.586,316 81,356.586 79.586,358 39,398.586 -1.586,358 39,317.414 40.414,316 
			39,314.586 -3,272.586 -4.414,274 37.586,316 -3,356.586 -4.414,358 -3,359.414 37.586,400 -3,440.586 -4.414,442 -3,443.414 
			37.586,484 -4.414,526 		"/>
		<polygon style="fill:#FFB600;" points="208.414,484 250.414,442 249,440.586 207,482.586 205.586,484 207,485.414 249,527.414 
			250.414,526 		"/>
		
			<rect x="1235" y="558.302" transform="matrix(0.7071 -0.7071 0.7071 0.7071 -54.4699 1046.498)" style="fill:#FFB600;" width="2" height="61.397"/>
		
			<rect x="815" y="600.302" transform="matrix(0.7071 -0.7071 0.7071 0.7071 -207.1835 761.8148)" style="fill:#FFB600;" width="2" height="61.397"/>
		<path style="fill:#FFB600;" d="M1383,608.586l-1.414,1.414L1341,650.586L1300.414,610l-1.414-1.414L1258.414,568l-1.414-1.414
			L1216.414,526l-1.414-1.414l-1.414,1.414L1173,566.586l-42-42l-1.414,1.414l42,42l1.414,1.414L1213.586,610L1173,650.586l-42-42
			l-1.414,1.414l42,42l1.414,1.414L1213.586,694L1173,734.586L1132.414,694l-1.414-1.414L1090.414,652l-1.414-1.414L1048.414,610
			l-1.414-1.414l-1.414,1.414L1005,650.586l-1.414,1.414L963,692.586L961.586,694l1.414,1.414L1003.586,736l1.414,1.414l1.414-1.414
			L1047,695.414L1087.586,736L1047,776.586l-1.414,1.414l1.414,1.414l42,42l1.414-1.414l-42-42L1089,737.414l1.414-1.414
			l-1.414-1.414L1048.414,694L1089,653.414L1129.586,694l1.414,1.414L1171.586,736l1.414,1.414L1213.586,778l1.414,1.414
			L1255.586,820l1.414,1.414l1.414-1.414l42-42l-1.414-1.414l-42,42L1216.414,778L1257,737.414l1.414-1.414L1299,695.414
			l1.414-1.414L1341,653.414L1381.586,694l1.414,1.414l42,42l1.414-1.414l-42-42l-1.414-1.414L1342.414,652L1383,611.414l42,42
			l1.414-1.414l-42-42L1383,608.586z M1047,692.586l-1.414,1.414L1005,734.586L964.414,694L1005,653.414l1.414-1.414L1047,611.414
			L1087.586,652L1047,692.586z M1174.414,568L1215,527.414L1255.586,568l1.414,1.414L1297.586,610L1257,650.586L1216.414,610
			l-1.414-1.414L1174.414,568z M1174.414,652L1215,611.414L1255.586,652L1215,692.586L1174.414,652z M1215,776.586L1174.414,736
			L1215,695.414L1255.586,736L1215,776.586z M1257,734.586L1216.414,694L1257,653.414L1297.586,694L1257,734.586z M1299,692.586
			L1258.414,652L1299,611.414L1339.586,652L1299,692.586z"/>
		<polygon style="fill:#FFB600;" points="754.414,652 753,650.586 711,692.586 670.414,652 712.414,610 711,608.586 669,650.586 
			628.414,610 627,608.586 586.414,568 585,566.586 544.414,526 543,524.586 502.414,484 501,482.586 460.414,442 459,440.586 
			417,398.586 415.586,400 457.586,442 459,443.414 499.586,484 459,524.586 418.414,484 417,482.586 375,440.586 373.586,442 
			415.586,484 417,485.414 457.586,526 459,527.414 460.414,526 501,485.414 541.586,526 499.586,568 501,569.414 543,527.414 
			583.586,568 585,569.414 625.586,610 627,611.414 667.586,652 669,653.414 709.586,694 711,695.414 753,737.414 754.414,736 
			712.414,694 		"/>
		
			<rect x="869.302" y="672" transform="matrix(0.7071 -0.7071 0.7071 0.7071 -212.279 833.5132)" style="fill:#FFB600;" width="61.397" height="2"/>
		
			<rect x="995.302" y="672" transform="matrix(0.7071 -0.7071 0.7071 0.7071 -175.3744 922.6087)" style="fill:#FFB600;" width="61.397" height="2"/>
		
			<rect x="1403" y="642.302" transform="matrix(0.7071 -0.7071 0.7071 0.7071 -64.6608 1189.895)" style="fill:#FFB600;" width="2" height="61.397"/>
		
			<rect x="815" y="684.302" transform="matrix(0.7071 -0.7071 0.7071 0.7071 -266.5805 786.4178)" style="fill:#FFB600;" width="2" height="61.397"/>
		
			<rect x="143" y="726.302" transform="matrix(0.7071 -0.7071 0.7071 0.7071 -493.1032 323.5435)" style="fill:#FFB600;" width="2" height="61.397"/>
		
			<rect x="647" y="726.302" transform="matrix(0.7071 -0.7071 0.7071 0.7071 -345.485 679.9254)" style="fill:#FFB600;" width="2" height="61.397"/>
		<polygon style="fill:#FFB600;" points="921,737.414 963,779.414 964.414,778 922.414,736 921,734.586 919.586,736 879,776.586 
			877.586,778 837,818.586 795,776.586 793.586,778 835.586,820 837,821.414 838.414,820 879,779.414 921,821.414 922.414,820 
			880.414,778 		"/>
		<polygon style="fill:#FFB600;" points="1383,734.586 1342.414,694 1341,692.586 1339.586,694 1299,734.586 1297.586,736 
			1255.586,778 1257,779.414 1299,737.414 1339.586,778 1297.586,820 1299,821.414 1341,779.414 1383,821.414 1384.414,820 
			1342.414,778 1341,776.586 1300.414,736 1341,695.414 1381.586,736 1383,737.414 1425,779.414 1426.414,778 1384.414,736 		"/>
		<path style="fill:#FFB600;" d="M208.414,778L207,776.586L166.414,736L165,734.586L124.414,694L123,692.586L121.586,694L81,734.586
			L79.586,736L81,737.414L121.586,778l-42,42L81,821.414l42-42L163.586,820l1.414,1.414l1.414-1.414L207,779.414L208.414,778z
			 M165,818.586L124.414,778L123,776.586L82.414,736L123,695.414L163.586,736l1.414,1.414L205.586,778L165,818.586z"/>
		<path style="fill:#FFB600;" d="M249,776.586L208.414,736l42-42L249,692.586l-42,42L166.414,694L207,653.414l1.414-1.414
			L207,650.586L166.414,610L165,608.586L163.586,610L123,650.586L82.414,610l42-42L123,566.586l-42,42L79.586,610L39,650.586
			L37.586,652L-3,692.586L-4.414,694L-3,695.414L37.586,736L-3,776.586L-4.414,778L-3,779.414L37.586,820L39,821.414L40.414,820
			L81,779.414L82.414,778L81,776.586L40.414,736L81,695.414L82.414,694L123,653.414L163.586,694l1.414,1.414L205.586,736
			l1.414,1.414L247.586,778l-42,42l1.414,1.414l42-42l42,42l1.414-1.414l-42-42L249,776.586z M79.586,778L39,818.586L-1.586,778
			L39,737.414L79.586,778z M39,734.586L-1.586,694L39,653.414L79.586,694L39,734.586z M81,692.586L40.414,652L81,611.414
			L121.586,652L81,692.586z M124.414,652L165,611.414L205.586,652L165,692.586L124.414,652z"/>
		
			<rect x="407.302" y="798" transform="matrix(0.7071 -0.7071 0.7071 0.7071 -436.6911 543.7344)" style="fill:#FFB600;" width="61.397" height="2"/>
		<polygon style="fill:#FFB600;" points="502.414,778 501,776.586 460.414,736 459,734.586 457.586,736 417,776.586 375,734.586 
			373.586,736 415.586,778 375,818.586 333,776.586 331.586,778 373.586,820 375,821.414 376.414,820 417,779.414 418.414,778 
			459,737.414 499.586,778 457.586,820 459,821.414 501,779.414 		"/>
		<polygon style="fill:#FFB600;" points="585,776.586 583.586,778 541.586,820 543,821.414 585,779.414 627,821.414 628.414,820 
			586.414,778 		"/>
		<path style="fill:#FFB600;" d="M712.414,778L711,776.586L670.414,736L669,734.586L628.414,694L627,692.586l-42-42L583.586,652
			l42,42L585,734.586L583.586,736L543,776.586L502.414,736L543,695.414l1.414-1.414L543,692.586L502.414,652l42-42L543,608.586
			l-42,42L460.414,610L459,608.586L418.414,568L417,566.586L415.586,568L375,608.586L373.586,610L333,650.586L292.414,610
			L333,569.414l1.414-1.414l42-42L375,524.586l-42,42L292.414,526L291,524.586L250.414,484L291,443.414l1.414-1.414L291,440.586
			L250.414,400L249,398.586L208.414,358L249,317.414L289.586,358l1.414,1.414L331.586,400l1.414,1.414l1.414-1.414L375,359.414
			l1.414-1.414L375,356.586l-42-42L331.586,316l42,42L333,398.586L292.414,358L291,356.586L250.414,316L249,314.586L208.414,274
			L249,233.414l1.414-1.414l42-42L291,188.586l-42,42L247.586,232L207,272.586L166.414,232L165,230.586L124.414,190L165,149.414
			l1.414-1.414L207,107.414L247.586,148l1.414,1.414l1.414-1.414L291,107.414l1.414-1.414L333,65.414L373.586,106l1.414,1.414
			L415.586,148l1.414,1.414L457.586,190L417,230.586L376.414,190L375,188.586l-42-42L331.586,148l42,42l1.414,1.414L415.586,232
			l1.414,1.414L457.586,274l1.414,1.414L499.586,316l-42,42l1.414,1.414l42-42l1.414-1.414L501,314.586L460.414,274L459,272.586
			L418.414,232L459,191.414l1.414-1.414L501,149.414L541.586,190l1.414,1.414L583.586,232L543,272.586l-42-42L499.586,232l42,42
			l1.414,1.414L583.586,316L543,356.586L541.586,358l-42,42l1.414,1.414l42-42l1.414-1.414L585,317.414L625.586,358l1.414,1.414
			L667.586,400L627,440.586L586.414,400L585,398.586L583.586,400L543,440.586L541.586,442l1.414,1.414L583.586,484l1.414,1.414
			L625.586,526l1.414,1.414l1.414-1.414L669,485.414L709.586,526l1.414,1.414L751.586,568l1.414,1.414l1.414-1.414L795,527.414
			l1.414-1.414L795,524.586L754.414,484L795,443.414L835.586,484l1.414,1.414l1.414-1.414L879,443.414L919.586,484L879,524.586
			L877.586,526L837,566.586L835.586,568l1.414,1.414L877.586,610l1.414,1.414l1.414-1.414L921,569.414l42,42l1.414-1.414l-42-42
			L921,566.586L919.586,568L879,608.586L838.414,568L879,527.414l1.414-1.414L921,485.414L961.586,526l1.414,1.414l42,42
			l1.414-1.414l-42-42L1005,485.414L1045.586,526l1.414,1.414l42,42l1.414-1.414l-42-42l-1.414-1.414L1006.414,484L1047,443.414
			l42,42l1.414-1.414l-42-42l-1.414-1.414l-1.414,1.414L1005,482.586l-1.414,1.414L963,524.586L922.414,484L963,443.414l1.414-1.414
			l42-42l-1.414-1.414l-42,42L922.414,400L921,398.586L880.414,358L879,356.586L838.414,316L837,314.586L796.414,274L795,272.586
			l-42-42L751.586,232l42,42l1.414,1.414L835.586,316l1.414,1.414L877.586,358L837,398.586l-42-42L793.586,358l42,42L795,440.586
			L754.414,400L753,398.586L712.414,358L711,356.586L670.414,316L711,275.414l42,42l1.414-1.414l-42-42L711,272.586L709.586,274
			L669,314.586L667.586,316L627,356.586L586.414,316L627,275.414l1.414-1.414l42-42L669,230.586l-42,42L586.414,232L585,230.586
			L544.414,190L585,149.414l1.414-1.414L585,146.586l-42-42L541.586,106l42,42L543,188.586L502.414,148L501,146.586L499.586,148
			L459,188.586L418.414,148L417,146.586L376.414,106L375,104.586L334.414,64L375,23.414L376.414,22L375,20.586l-42-42L331.586-20
			l42,42L333,62.586L292.414,22L291,20.586l-42-42L247.586-20l42,42L291,23.414L331.586,64L291,104.586L250.414,64L249,62.586
			L247.586,64L207,104.586L166.414,64L207,23.414L208.414,22L207,20.586L166.414-20L165-21.414L163.586-20l-42,42L123,23.414l42-42
			L205.586,22L165,62.586L163.586,64L165,65.414L205.586,106L165,146.586L163.586,148L123,188.586L82.414,148l42-42L123,104.586
			l-42,42L40.414,106L81,65.414L82.414,64L81,62.586l-42-42L37.586,22l42,42L39,104.586l-42-42L-4.414,64l42,42L39,107.414
			L79.586,148L81,149.414L121.586,190l1.414,1.414L163.586,232l-42,42l1.414,1.414l42-42L205.586,274l1.414,1.414L247.586,316
			L207,356.586L166.414,316L165,314.586L163.586,316L123,356.586L121.586,358L81,398.586L79.586,400L81,401.414L121.586,442
			l1.414,1.414L163.586,484l1.414,1.414L205.586,526l1.414,1.414L247.586,568l1.414,1.414L289.586,610l1.414,1.414L331.586,652
			l1.414,1.414l1.414-1.414L375,611.414L415.586,652l1.414,1.414l1.414-1.414L459,611.414L499.586,652l1.414,1.414L541.586,694
			L501,734.586L460.414,694L459,692.586L457.586,694L417,734.586L376.414,694L375,692.586L373.586,694L333,734.586L292.414,694
			L291,692.586L250.414,652L249,650.586L208.414,610L207,608.586L166.414,568L165,566.586L124.414,526L123,524.586L82.414,484
			L81,482.586l-42-42L37.586,442l42,42L81,485.414L121.586,526L81,566.586L40.414,526L39,524.586L37.586,526L-3,566.586L-4.414,568
			L-3,569.414L37.586,610l-42,42L-3,653.414l42-42L40.414,610L81,569.414L82.414,568L123,527.414L163.586,568l-42,42l1.414,1.414
			l42-42L205.586,610l1.414,1.414L247.586,652l-42,42l1.414,1.414l42-42L289.586,694L249,734.586L247.586,736l1.414,1.414
			L289.586,778l1.414,1.414l42,42l1.414-1.414l-42-42L333,737.414l42,42l1.414-1.414l-42-42L375,695.414L415.586,736l1.414,1.414
			l1.414-1.414L459,695.414L499.586,736l1.414,1.414L541.586,778l-42,42l1.414,1.414l42-42l1.414-1.414L585,737.414L625.586,778
			l1.414,1.414L667.586,820l1.414,1.414l1.414-1.414L711,779.414L712.414,778z M669,401.414L709.586,442L669,482.586L628.414,442
			L669,401.414z M627,524.586L586.414,484L585,482.586L544.414,442L585,401.414L625.586,442l1.414,1.414L667.586,484L627,524.586z
			 M670.414,484L711,443.414L751.586,484L711,524.586L670.414,484z M793.586,526L753,566.586L712.414,526L753,485.414L793.586,526z
			 M837,401.414l1.414-1.414L879,359.414L919.586,400l1.414,1.414L961.586,442L921,482.586L880.414,442L879,440.586L877.586,442
			L837,482.586L796.414,442L837,401.414z M669,317.414L709.586,358l1.414,1.414L751.586,400l1.414,1.414L793.586,442L753,482.586
			L712.414,442L711,440.586L670.414,400L669,398.586L628.414,358L669,317.414z M625.586,274L585,314.586L544.414,274L585,233.414
			L625.586,274z M249,65.414L289.586,106L249,146.586L208.414,106L249,65.414z M165,317.414L205.586,358L165,398.586L124.414,358
			L165,317.414z M124.414,442L123,440.586L82.414,400L123,359.414L163.586,400l1.414,1.414l1.414-1.414L207,359.414L247.586,400
			L207,440.586L205.586,442L165,482.586L124.414,442z M208.414,526L207,524.586L166.414,484L207,443.414l1.414-1.414L249,401.414
			L289.586,442L249,482.586L247.586,484l1.414,1.414L289.586,526L249,566.586L208.414,526z M250.414,568L291,527.414L331.586,568
			L291,608.586L250.414,568z M417,650.586L376.414,610L417,569.414L457.586,610L417,650.586z M39,608.586L-1.586,568L39,527.414
			L79.586,568L39,608.586z M291,776.586L250.414,736L291,695.414L331.586,736L291,776.586z M669,818.586L628.414,778L627,776.586
			L586.414,736L627,695.414L667.586,736l1.414,1.414L709.586,778L669,818.586z"/>
		
			<rect x="1151" y="768.302" transform="matrix(0.7071 -0.7071 0.7071 0.7071 -227.5653 1048.6086)" style="fill:#FFB600;" width="2" height="61.397"/>
		<polygon style="fill:#FFB600;" points="1173,776.586 1132.414,736 1131,734.586 1089,692.586 1087.586,694 1129.586,736 
			1089,776.586 1087.586,778 1089,779.414 1131,821.414 1132.414,820 1090.414,778 1131,737.414 1171.586,778 1173,779.414 
			1215,821.414 1216.414,820 1174.414,778 		"/>
		<polygon style="fill:#FFB600;" points="1383,776.586 1341,734.586 1339.586,736 1381.586,778 1383,779.414 1425,821.414 
			1426.414,820 1384.414,778 		"/>
	</g>
</g>
</svg>
